<?xml version="1.0" encoding="utf-8"?>
<!-- Generator: Adobe Illustrator 26.4.1, SVG Export Plug-In . SVG Version: 6.00 Build 0)  -->
<svg version="1.1" id="Layer_1" xmlns="http://www.w3.org/2000/svg" xmlns:xlink="http://www.w3.org/1999/xlink" x="0px" y="0px"
	 viewBox="0 0 600 450" style="enable-background:new 0 0 600 450;" xml:space="preserve">
<style type="text/css">
	
		.st0{fill:none;stroke:#AAAAAA;stroke-width:0.36;stroke-linecap:round;stroke-miterlimit:12;stroke-dasharray:6,12;stroke-dashoffset:12;}
	.st1{fill:none;stroke:#000000;stroke-width:1.2;stroke-linecap:round;stroke-miterlimit:12;}
	.st2{font-family:'Helvetica-Light';}
	.st3{font-size:11.531px;}
	.st4{fill:none;stroke:#0000FF;stroke-width:1.2;stroke-miterlimit:12;}
	.st5{font-family:'Helvetica-LightOblique';}
	.st6{font-size:19.2183px;}
	.st7{font-size:17.6168px;}
	.st8{fill:none;stroke:#0000FF;stroke-width:0.6816;stroke-miterlimit:6.8156;}
	.st9{opacity:0.25;fill:url(#SVGID_1_);}
</style>
<image style="overflow:visible;enable-background:new    ;" width="559" height="560" xlink:href="../../../PostDoc/Conferences/GeneExpEvo2022/figs/firefy.jpeg"  transform="matrix(0.1807 0 0 0.1807 479.243 46.0573)">
</image>
<image style="overflow:visible;enable-background:new    ;" width="921" height="1599" xlink:href="../../../PostDoc/Conferences/GeneExpEvo2022/figs/aplan.jpeg"  transform="matrix(3.799916e-02 -4.030900e-02 4.030900e-02 3.799916e-02 411.8479 125.4203)">
</image>
<image style="overflow:visible;enable-background:new    ;" width="992" height="539" xlink:href="../../../PostDoc/Conferences/GeneExpEvo2022/figs/1536E8251F1CFD26.jpg"  transform="matrix(0.1488 0 0 0.1488 432.6283 316.289)">
</image>
<g id="rangeHolder">
</g>
<g id="pruningHolder">
</g>
<g>
	<path class="st0" d="M221.1,350.7h-1.4"/>
	<path class="st1" d="M219.7,350.7H215"/>
</g>
<g>
	<path class="st0" d="M221.1,321.9h-1.4"/>
	<path class="st1" d="M219.7,321.9H215"/>
</g>
<g>
	<path class="st0" d="M221.1,293.1h-1.4"/>
	<path class="st1" d="M219.7,293.1h-36"/>
</g>
<g>
	<path class="st0" d="M221.1,264.3h-1.4"/>
	<path class="st1" d="M219.7,264.3H95.4"/>
</g>
<g>
	<path class="st0" d="M221.1,235.4h-1.4"/>
	<path class="st1" d="M219.7,235.4h-97.1"/>
</g>
<g>
	<path class="st0" d="M221.1,206.6h-1.4"/>
	<path class="st1" d="M219.7,206.6h-97.1"/>
</g>
<g>
	<path class="st0" d="M221.1,177.8h-1.4"/>
	<path class="st1" d="M219.7,177.8H90.1"/>
</g>
<g>
	<path class="st0" d="M221.1,149h-1.4"/>
	<path class="st1" d="M219.7,149H66.5"/>
</g>
<g>
	<path class="st0" d="M221.1,120.1h-1.4"/>
	<path class="st1" d="M219.7,120.1H47.9"/>
</g>
<g>
	<path class="st0" d="M221.1,91.3h-1.4"/>
	<path class="st1" d="M219.7,91.3H47.9"/>
</g>
<g>
	<path class="st1" d="M122.5,221H90.1 M122.5,235.4v-28.8"/>
</g>
<g>
	<path class="st1" d="M90.1,199.4H66.5 M90.1,221v-43.2"/>
</g>
<g>
	<path class="st1" d="M66.5,174.2H32 M66.5,199.4V149"/>
</g>
<g>
	<path class="st1" d="M215,336.3h-31.3 M215.1,350.7v-28.8"/>
</g>
<g>
	<path class="st1" d="M183.7,314.7H95.4 M183.7,336.3v-43.2"/>
</g>
<g>
	<path class="st1" d="M95.4,289.5H32 M95.4,314.7v-50.4"/>
</g>
<g>
	<path class="st1" d="M32,231.8H21.4 M32,289.5V174.2"/>
</g>
<g>
	<path class="st1" d="M47.9,105.7H21.4 M47.9,120.1V91.3"/>
</g>
<path class="st1" d="M21.4,231.8V105.7"/>
<text transform="matrix(1 0 0 1 219.4645 391.2041)" class="st2 st3">0</text>
<path class="st4" d="M221.8,368.4"/>
<text transform="matrix(1 0 0 1 174.6911 391.2041)" class="st2 st3">50</text>
<path class="st4" d="M179.6,368.4"/>
<text transform="matrix(1 0 0 1 131.5202 391.2041)" class="st2 st3">100</text>
<text transform="matrix(1 0 0 1 89.9528 391.2041)" class="st2 st3">150</text>
<text transform="matrix(1 0 0 1 44.3747 391.2041)" class="st2 st3">200</text>
<text transform="matrix(1 0 0 1 1.9997 391.2041)" class="st2 st3">250</text>
<g id="bootstrapHolder">
</g>
<g id="branchlengthHolder">
</g>
<g id="branchIDHolder">
</g>
<g id="datasetHolder">
</g>
<g id="legendHolder">
</g>
<text transform="matrix(1 0 0 1 227.7702 96.542)" class="st5 st6">Photinus pyralis</text>
<text transform="matrix(1 0 0 1 227.7702 127.4648)" class="st5 st6">Agrilus planipennis</text>
<text transform="matrix(1 0 0 1 227.7702 271.207)" class="st5 st6">Trypoxylus dichotomus</text>
<text transform="matrix(1 0 0 1 227.7702 356.4229)" class="st5 st6">Onthophagus taurus</text>
<text transform="matrix(1 0 0 1 227.7702 157.1636)" class="st5 st6">Tribolium castaneum</text>
<text transform="matrix(1 0 0 1 227.7702 186.0815)" class="st5 st6">Dendroctonus ponderosae</text>
<text transform="matrix(1 0 0 1 227.7702 214.9058)" class="st5 st6">Anoplophora glabripennis</text>
<text transform="matrix(1 0 0 1 227.7702 241.5459)" class="st5 st6">Leptinotarsa decemlineata</text>
<text transform="matrix(1 0 0 1 227.7692 328.7402)" class="st5 st6">Onthophagus sagittarius</text>
<text transform="matrix(1 0 0 1 227.7702 299.9639)" class="st5 st6">Digitonthophagus gazella</text>
<text transform="matrix(1 0 0 1 106.3044 413.9238)" class="st2 st7">mya</text>
<path class="st8" d="M222.1,372.4v4.9"/>
<path class="st8" d="M180.1,372.4v4.9"/>
<path class="st8" d="M137.9,372.4v4.9"/>
<path class="st8" d="M95.8,372.4v4.9"/>
<path class="st8" d="M53.7,372.4v4.9"/>
<path class="st8" d="M11.6,372.4v4.9"/>
<g id="wWa3dg_00000173125285561605778580000012796102957568420995_">
	
		<image style="overflow:visible;enable-background:new    ;" width="974" height="577" id="wWa3dg" xlink:href="../../../PostDoc/Conferences/GeneExpEvo2022/figs/1536E8251F1CFD22.png"  transform="matrix(0.1542 0 0 0.1542 451.8396 241.1654)">
	</image>
</g>
<image style="overflow:visible;enable-background:new    ;" width="800" height="631" xlink:href="../../../PostDoc/Conferences/GeneExpEvo2022/figs/tribe.jpeg"  transform="matrix(0.1172 0 0 0.1172 491.859 169.6693)">
</image>
<linearGradient id="SVGID_1_" gradientUnits="userSpaceOnUse" x1="226.2051" y1="323.3323" x2="451.8396" y2="323.3323">
	<stop  offset="0.167" style="stop-color:#000000"/>
	<stop  offset="0.7788" style="stop-color:#FFFFFF"/>
</linearGradient>
<rect x="226.2" y="283.3" class="st9" width="225.6" height="80.1"/>
</svg>
